<svg width="469" height="807" viewBox="0 0 469 807" fill="none" xmlns="http://www.w3.org/2000/svg">
<g opacity="0.2">
<path opacity="0.2" fill-rule="evenodd" clip-rule="evenodd" d="M516.654 370.004C457.315 387.916 445.071 319.224 432.918 290.581C421.853 264.499 374.31 234.921 379.718 214.151C393.543 161.053 455.412 219.483 501.034 186.084C575.506 131.546 622.698 206.385 616.834 250.703C610.971 295.021 585.551 349.218 516.654 370.004Z" fill="#353570" stroke="#8989C7" stroke-width="3.3795" stroke-miterlimit="10"/>
<path opacity="0.96" fill-rule="evenodd" clip-rule="evenodd" d="M687.351 141.388C744.736 184.98 746.007 215.716 727.735 250.375C718.935 267.092 691.446 286.99 665.992 312.286C624.273 353.735 591.796 425.057 626.911 485.993C670.907 562.344 564.67 613.051 497.723 583.682C468.654 570.924 455.449 580.057 428.431 574.829C392.961 567.979 363.816 552.329 364.184 518.523C364.768 460.853 363.725 441.041 356.64 402.447C356.053 399.3 355.459 396.066 354.865 392.695C350.172 365.853 326.397 343.972 307.474 329.753C289.659 316.459 277.558 297.235 273.383 275.596C267.316 243.556 266.669 198.92 292.472 162.995C336.048 102.717 357.293 124.285 408.153 87.5111C434.157 68.7071 456.75 57.8505 479.06 52.4612C507.781 45.6116 537.317 48.4557 576.665 64.0749C619.362 81.0124 627.586 85.9595 643.658 99.3546C654.597 108.547 664.408 124 687.351 141.388Z" stroke="#8989C7" stroke-width="3.3795" stroke-miterlimit="10"/>
<path opacity="0.96" fill-rule="evenodd" clip-rule="evenodd" d="M672.756 174.599C706.299 212.53 708.563 235.498 693.641 263.869C686.018 278.347 665.643 294.809 646.915 315.069C614.623 349.974 580.843 404.379 601.393 459.43C616.99 501.316 632.755 608.517 488.028 521.401C469.541 510.28 447.209 508.113 426.319 503.44C403.824 498.372 389.713 491.725 382.177 469.33C372.668 440.942 374.817 410.449 368.706 381.41C362.507 352.309 346.97 326.117 324.301 306.547C310.621 294.948 301.276 279.27 297.645 261.828C292.592 236.513 292.818 202.847 311.938 175.499C322.366 160.587 334.662 147.674 351.288 139.437C390.22 120.126 426.11 93.1738 469.028 83.8108C498.343 77.3962 529.128 77.7165 565.545 89.3962C603.647 101.65 619.534 108.194 637.238 123.772C650.594 135.463 656.529 156.244 672.756 174.599Z" stroke="#8989C7" stroke-width="1.68975" stroke-miterlimit="10"/>
<path opacity="0.96" fill-rule="evenodd" clip-rule="evenodd" d="M658.949 193.874C667.799 218.593 668.707 246.084 658.504 271.543C644.389 306.86 611.641 332.827 595.534 367.367C584.31 391.355 580.862 419.68 561.85 438.625C546.493 453.904 523.683 459.88 502.021 460.507C477.715 461.183 453.788 456.06 432.333 445.59C414.053 436.635 397.207 422.959 390.394 404.155C384.514 387.878 386.714 369.649 382.636 352.807C374.111 317.646 340.167 294.065 326.122 260.69C285.566 164.187 434.507 111.188 507.501 110.696C551.931 110.407 607.22 120.71 636.269 154.792C646.148 166.374 653.822 179.599 658.949 193.874V193.874Z" stroke="#8989C7" stroke-width="1.18282" stroke-miterlimit="10"/>
<path opacity="0.96" fill-rule="evenodd" clip-rule="evenodd" d="M380.394 292.667C372.787 280.928 363.662 270.142 356.478 258.136C349.294 246.129 343.889 231.992 345.262 217.753C346.594 203.819 354.272 190.788 364.52 180.7C388.563 157.02 424.165 149.425 457.675 144.599C483.371 140.909 509.328 138.172 535.095 139.674C578.805 142.166 631.219 158.752 642.762 204.66C655.703 256.369 617.933 313.772 585.945 353.171C571.824 370.561 555.995 387.151 536.456 398.49C516.917 409.83 493.13 415.472 471.536 409.855C446.385 403.296 427.986 382.722 415.373 360.749C402.761 338.776 394.397 314.516 380.697 293.177L380.394 292.667Z" stroke="#8989C7" stroke-width="0.844874" stroke-miterlimit="10"/>
</g>
</svg>
