<svg width="370" height="568" viewBox="0 0 370 568" fill="none" xmlns="http://www.w3.org/2000/svg">
<g opacity="0.2">
<path opacity="0.2" fill-rule="evenodd" clip-rule="evenodd" d="M77.7177 201.744C59.3443 142.546 -4.43147 170.851 -34.9688 176.814C-62.7756 182.246 -113.898 159.406 -128.082 175.514C-164.343 216.692 -81.2928 235.253 -83.4305 291.753C-86.9361 383.993 1.49534 381.205 34.9374 351.539C68.3794 321.873 99.0598 270.471 77.7177 201.744Z" fill="#353570" stroke="#8989C7" stroke-width="3.3795" stroke-miterlimit="10"/>
<path opacity="0.96" fill-rule="evenodd" clip-rule="evenodd" d="M-16.1737 471.164C52.0713 494.314 78.2527 478.162 96.7437 443.62C105.671 426.97 106.772 393.054 113.484 357.801C124.478 300.029 165.399 233.193 235.549 228.18C323.446 221.899 305.995 105.482 244.184 66.4456C217.34 49.4989 217.517 33.4443 198.06 13.983C172.529 -11.5752 143.247 -26.9655 115.439 -7.7364C67.9772 25.0288 50.9764 35.2545 15.0303 50.9879C12.0933 52.2626 9.08131 53.5806 5.95582 54.9759C-18.914 66.1127 -50.3541 58.6593 -72.7292 50.9382C-93.7181 43.6181 -116.422 44.3516 -136.69 53.0048C-166.636 65.9128 -203.986 90.3619 -219.311 131.854C-244.867 201.704 -215.102 207.236 -217.106 269.966C-218.131 302.04 -214.48 326.839 -206.458 348.343C-196.056 375.977 -177.166 398.859 -142.198 422.722C-104.262 448.621 -95.5591 452.667 -75.4623 458.487C-61.7222 462.406 -43.4248 461.885 -16.1737 471.164Z" stroke="#8989C7" stroke-width="3.3795" stroke-miterlimit="10"/>
<path opacity="0.96" fill-rule="evenodd" clip-rule="evenodd" d="M3.17678 440.479C53.3842 447.042 73.6841 436.061 88.8405 407.815C96.571 393.393 98.8066 367.295 105.112 340.435C115.959 294.137 142.133 235.692 199.254 221.904C242.694 211.382 340.35 164.437 187.148 93.2752C167.584 84.1808 153.287 66.889 137.721 52.1939C120.93 36.391 107.522 28.4184 84.7469 34.7093C55.9005 42.7204 31.8354 61.5706 4.35128 72.7621C-23.2332 83.9149 -53.6342 85.7026 -82.5399 77.8717C-99.8095 73.0295 -118.032 74.0619 -134.517 80.8165C-158.323 90.7993 -186.094 109.832 -198.053 140.984C-204.573 157.973 -208.39 175.39 -205.909 193.779C-200.118 236.849 -202.361 281.676 -186.096 322.481C-175.001 350.364 -157.503 375.695 -127.44 399.333C-95.9571 424.047 -81.6418 433.549 -58.8229 439.499C-41.6586 444.022 -21.1162 437.308 3.17678 440.479Z" stroke="#8989C7" stroke-width="1.68975" stroke-miterlimit="10"/>
<path opacity="0.96" fill-rule="evenodd" clip-rule="evenodd" d="M11.4203 418.249C36.857 411.745 60.1455 397.109 75.531 374.402C96.8949 342.938 100.081 301.266 119.686 268.583C133.281 245.855 154.822 227.142 159.878 200.783C163.943 179.505 156.127 157.258 144.521 138.956C131.475 118.438 113.836 101.478 93.1503 89.561C75.4971 79.4253 54.7351 73.1212 35.3386 78.0019C18.5598 82.2412 4.68605 94.2685 -11.5527 100.316C-45.4609 112.935 -84.0018 98.007 -119.52 105.05C-222.19 125.464 -182.734 278.551 -142.281 339.313C-117.65 376.291 -78.1631 416.339 -33.6609 421.332C-18.5341 423.035 -3.27926 421.991 11.4203 418.249V418.249Z" stroke="#8989C7" stroke-width="1.18282" stroke-miterlimit="10"/>
<path opacity="0.96" fill-rule="evenodd" clip-rule="evenodd" d="M-62.642 132.123C-76.6274 132.391 -90.6729 130.867 -104.644 131.635C-118.615 132.403 -133.355 135.837 -144.385 144.946C-155.186 153.85 -161.686 167.506 -164.309 181.645C-170.473 214.824 -156.837 248.577 -142.079 279.046C-130.752 302.404 -118.49 325.446 -102.822 345.957C-76.2892 380.782 -33.2055 414.931 11.2973 398.797C61.3902 380.576 87.8143 317.145 102.556 268.584C109.062 247.149 113.948 224.745 112.407 202.207C110.867 179.669 102.226 156.799 85.4846 142.049C65.9702 124.88 38.6229 121.15 13.3548 122.998C-11.9133 124.847 -36.698 131.496 -62.0501 132.089L-62.642 132.123Z" stroke="#8989C7" stroke-width="0.844874" stroke-miterlimit="10"/>
</g>
</svg>
